<svg viewBox="0 0 800 500" xmlns="http://www.w3.org/2000/svg">
<rect width="100%" height="100%" fill="white"/>
<line x1="80" y1="420" x2="720" y2="420" stroke="black" stroke-width="2"/>
<line x1="80" y1="80" x2="80" y2="420" stroke="black" stroke-width="2"/>
<line x1="720" y1="80" x2="720" y2="420" stroke="black" stroke-width="2"/>
<line x1="80.0" y1="420" x2="80.0" y2="425" stroke="black"/>
<text x="80.0" y="440" font-family="Arial" font-size="12" text-anchor="middle">0.26M</text>
<line x1="292.60192457416576" y1="420" x2="292.60192457416576" y2="425" stroke="black"/>
<text x="292.60192457416576" y="440" font-family="Arial" font-size="12" text-anchor="middle">1M</text>
<line x1="465.99043030600575" y1="420" x2="465.99043030600575" y2="425" stroke="black"/>
<text x="465.99043030600575" y="440" font-family="Arial" font-size="12" text-anchor="middle">3M</text>
<line x1="656.0074614616731" y1="420" x2="656.0074614616731" y2="425" stroke="black"/>
<text x="656.0074614616731" y="440" font-family="Arial" font-size="12" text-anchor="middle">10M</text>
<line x1="720.0" y1="420" x2="720.0" y2="425" stroke="black"/>
<text x="720.0" y="440" font-family="Arial" font-size="12" text-anchor="middle">15M</text>
<line x1="75" y1="420.0" x2="80" y2="420.0" stroke="blue"/>
<text x="70" y="425.0" font-family="Arial" font-size="12" text-anchor="end" fill="blue">0</text>
<line x1="75" y1="352.0" x2="80" y2="352.0" stroke="blue"/>
<text x="70" y="357.0" font-family="Arial" font-size="12" text-anchor="end" fill="blue">1</text>
<line x1="75" y1="284.0" x2="80" y2="284.0" stroke="blue"/>
<text x="70" y="289.0" font-family="Arial" font-size="12" text-anchor="end" fill="blue">2</text>
<line x1="75" y1="216.0" x2="80" y2="216.0" stroke="blue"/>
<text x="70" y="221.0" font-family="Arial" font-size="12" text-anchor="end" fill="blue">3</text>
<line x1="75" y1="148.0" x2="80" y2="148.0" stroke="blue"/>
<text x="70" y="153.0" font-family="Arial" font-size="12" text-anchor="end" fill="blue">4</text>
<line x1="75" y1="80.0" x2="80" y2="80.0" stroke="blue"/>
<text x="70" y="85.0" font-family="Arial" font-size="12" text-anchor="end" fill="blue">5</text>
<line x1="720" y1="420.0" x2="725" y2="420.0" stroke="red"/>
<text x="730" y="425.0" font-family="Arial" font-size="12" fill="red">0</text>
<line x1="720" y1="363.3333333333333" x2="725" y2="363.3333333333333" stroke="red"/>
<text x="730" y="368.3333333333333" font-family="Arial" font-size="12" fill="red">5</text>
<line x1="720" y1="306.6666666666667" x2="725" y2="306.6666666666667" stroke="red"/>
<text x="730" y="311.6666666666667" font-family="Arial" font-size="12" fill="red">10</text>
<line x1="720" y1="250.0" x2="725" y2="250.0" stroke="red"/>
<text x="730" y="255.0" font-family="Arial" font-size="12" fill="red">15</text>
<line x1="720" y1="193.33333333333334" x2="725" y2="193.33333333333334" stroke="red"/>
<text x="730" y="198.33333333333334" font-family="Arial" font-size="12" fill="red">20</text>
<line x1="720" y1="136.66666666666663" x2="725" y2="136.66666666666663" stroke="red"/>
<text x="730" y="141.66666666666663" font-family="Arial" font-size="12" fill="red">25</text>
<line x1="720" y1="80.0" x2="725" y2="80.0" stroke="red"/>
<text x="730" y="85.0" font-family="Arial" font-size="12" fill="red">30</text>
<polyline points="80.0,386.0 292.60192457416576,338.4 465.99043030600575,229.60000000000002 620.789826154705,154.8 720.0,114.0" fill="none" stroke="blue" stroke-width="3"/>
<circle cx="80.0" cy="386.0" r="5" fill="blue"/>
<circle cx="292.60192457416576" cy="338.4" r="5" fill="blue"/>
<circle cx="465.99043030600575" cy="229.60000000000002" r="5" fill="blue"/>
<circle cx="620.789826154705" cy="154.8" r="5" fill="blue"/>
<circle cx="720.0" cy="114.0" r="5" fill="blue"/>
<polyline points="80.0,122.38666666666666 292.60192457416576,240.70666666666668 465.99043030600575,301.0 620.789826154705,349.73333333333335 720.0,384.8666666666667" fill="none" stroke="red" stroke-width="3" stroke-dasharray="8,4"/>
<rect x="76.0" y="118.38666666666666" width="8" height="8" fill="red"/>
<rect x="288.60192457416576" y="236.70666666666668" width="8" height="8" fill="red"/>
<rect x="461.99043030600575" y="297.0" width="8" height="8" fill="red"/>
<rect x="616.789826154705" y="345.73333333333335" width="8" height="8" fill="red"/>
<rect x="716.0" y="380.8666666666667" width="8" height="8" fill="red"/>
<text x="302.60192457416576" y="358.4" font-family="Arial" font-size="14" font-weight="bold" fill="darkgreen">PhD Proven (1M)</text>
<line x1="292.60192457416576" y1="338.4" x2="342.60192457416576" y2="388.4" stroke="darkgreen" stroke-width="1"/>
<text x="400.0" y="40.0" font-family="Arial" font-size="18" font-weight="bold" text-anchor="middle">Pareto Frontier: Embedded LLM Scaling on ESP32-S3</text>
<text x="400.0" y="480" font-family="Arial" font-size="14" text-anchor="middle">Model Parameters (log scale)</text>
<text x="20" y="250.0" font-family="Arial" font-size="14" text-anchor="middle" transform="rotate(-90,20,250.0)" fill="blue">Language Coherence Score (1-5)</text>
<text x="780" y="250.0" font-family="Arial" font-size="14" text-anchor="middle" transform="rotate(90,780,250.0)" fill="red">Throughput (tokens/s)</text>
</svg>